Coordinates
version=1
nRows=41
nColumns=38
inDegrees=no

Units are S.I. units (second, meters, Newtons, ...)
If the header above contains a line with 'inDegrees', this indicates whether rotational values are in degrees (yes) or radians (no).

endheader
time	pelvis_tilt	pelvis_list	pelvis_rotation	pelvis_tx	pelvis_ty	pelvis_tz	hip_flexion_r	hip_adduction_r	hip_rotation_r	knee_angle_r	ankle_angle_r	subtalar_angle_r	mtp_angle_r	hip_flexion_l	hip_adduction_l	hip_rotation_l	knee_angle_l	ankle_angle_l	subtalar_angle_l	mtp_angle_l	lumbar_extension	lumbar_bending	lumbar_rotation	arm_flex_r	arm_add_r	arm_rot_r	elbow_flex_r	pro_sup_r	wrist_flex_r	wrist_dev_r	arm_flex_l	arm_add_l	arm_rot_l	elbow_flex_l	pro_sup_l	wrist_flex_l	wrist_dev_l
125	-2.47957	1.45919	0.973254	0.726924	-0.664862	1.02692	0.0128083	0.0612938	-0.234422	0	-0.282594	0	0	0.0052041	-0.175189	-0.260364	0.00959664	-0.368003	0	0	0.0261053	0.126775	-0.0406604	0.134645	-0.156127	0.188956	0.0957789	1.5708	0	0	0.0225985	-0.21117	0.670008	0.376364	1.15971	0	0
125.01	-2.47423	1.45972	0.968134	0.727329	-0.66518	1.02701	0.0114421	0.0611028	-0.232459	0	-0.282219	0	0	0.00404236	-0.17502	-0.260294	0.00962462	-0.367834	0	0	0.0257717	0.126223	-0.0411706	0.134475	-0.15594	0.190886	0.0974743	1.5708	0	0	0.0225865	-0.212312	0.670385	0.376752	1.15904	0	0
125.02	-2.4724	1.46007	0.965451	0.727564	-0.665374	1.02704	0.0110327	0.0608264	-0.231914	0	-0.281439	0	0	0.00327084	-0.174725	-0.260814	0.00993833	-0.367377	0	0	0.0253543	0.125358	-0.0405729	0.134414	-0.155643	0.196168	0.0990636	1.5708	0	0	0.0225759	-0.213929	0.670484	0.378032	1.15817	0	0
125.03	-2.4769	1.45973	0.968857	0.727745	-0.665552	1.027	0.0120217	0.0603762	-0.232306	0	-0.280948	0	0	0.00381761	-0.174252	-0.261586	0.010925	-0.366796	0	0	0.0261356	0.124187	-0.0398691	0.134127	-0.155403	0.201149	0.101155	1.5708	0	0	0.0221957	-0.215465	0.669714	0.379195	1.15779	0	0
125.04	-2.48085	1.45942	0.972332	0.728022	-0.665788	1.02698	0.0125426	0.0598618	-0.231779	0	-0.280665	0	0	0.0044239	-0.173767	-0.262014	0.0118817	-0.366189	0	0	0.02699	0.123119	-0.0399119	0.133698	-0.155218	0.204069	0.103406	1.5708	0	0	0.0217023	-0.216818	0.668647	0.380162	1.15808	0	0
125.05	-2.48022	1.45941	0.972021	0.728405	-0.66607	1.027	0.0119633	0.0595315	-0.229991	0	-0.280325	0	0	0.00445439	-0.173483	-0.262692	0.0124154	-0.365803	0	0	0.0272597	0.122472	-0.0407746	0.133452	-0.154987	0.206323	0.104969	1.5708	0	0	0.0214025	-0.217952	0.667991	0.380814	1.15818	0	0
125.06	-2.48046	1.45953	0.972026	0.728716	-0.666334	1.02701	0.0114436	0.059116	-0.228911	0	-0.279896	0	0	0.00414895	-0.173042	-0.262959	0.0126044	-0.365257	0	0	0.0274515	0.121677	-0.0409374	0.133095	-0.154809	0.20912	0.106469	1.5708	0	0	0.0210925	-0.219023	0.666834	0.381533	1.15823	0	0
125.07	-2.47929	1.46045	0.969546	0.72891	-0.666648	1.0271	0.0102923	0.0584557	-0.228577	0	-0.279573	0	0	0.00215407	-0.172077	-0.260894	0.0117395	-0.364743	0	0	0.0267201	0.120619	-0.0401995	0.132719	-0.154676	0.212547	0.108086	1.5708	0	0	0.0205941	-0.220092	0.664653	0.382589	1.15816	0	0
125.08	-2.47383	1.46244	0.962609	0.729095	-0.667087	1.02735	0.00753403	0.0575668	-0.227379	0	-0.279583	0	0	-0.00168469	-0.170722	-0.256578	0.0101258	-0.364701	0	0	0.0247958	0.119278	-0.0394533	0.132592	-0.154435	0.213368	0.109623	1.5708	0	0	0.0202109	-0.221171	0.66334	0.383133	1.15831	0	0
125.09	-2.47363	1.46319	0.962391	0.729383	-0.667312	1.02743	0.00644163	0.0567931	-0.226872	0	-0.279765	0	0	-0.002648	-0.169918	-0.255605	0.009898	-0.364678	0	0	0.0238839	0.117905	-0.0403738	0.132885	-0.154166	0.212671	0.111702	1.5708	0	0	0.0198242	-0.22276	0.662129	0.384315	1.15896	0	0
125.1	-2.4899	1.46059	0.979692	0.729747	-0.667392	1.02709	0.00974443	0.0564487	-0.227533	0	-0.279442	0	0	0.00251334	-0.170168	-0.26005	0.0132078	-0.363355	0	0	0.0266275	0.117031	-0.0428953	0.132582	-0.153921	0.210313	0.114322	1.5708	0	0	0.0182151	-0.224467	0.657715	0.386932	1.16203	0	0
125.11	-2.49681	1.45897	0.986926	0.73011	-0.667522	1.02695	0.0114894	0.0564175	-0.227912	0	-0.279103	0	0	0.00525725	-0.170381	-0.262142	0.0151088	-0.362499	0	0	0.0298745	0.117068	-0.042966	0.13143	-0.154174	0.209577	0.114465	1.5708	0	0	0.0187071	-0.223866	0.657499	0.384493	1.16332	0	0
125.12	-2.49946	1.4587	0.989639	0.730457	-0.667765	1.02692	0.0115433	0.0559305	-0.227295	0	-0.278804	0	0	0.00571396	-0.170003	-0.262269	0.0157215	-0.362027	0	0	0.0307389	0.116681	-0.0430798	0.130791	-0.154266	0.209031	0.114611	1.5708	0	0	0.0190961	-0.223887	0.657493	0.3833	1.1636	0	0
125.13	-2.50318	1.45838	0.993109	0.730753	-0.66801	1.02687	0.0117582	0.0554777	-0.226988	0	-0.278328	0	0	0.00602803	-0.169514	-0.261953	0.0159891	-0.361361	0	0	0.031459	0.116192	-0.042838	0.130268	-0.154302	0.208005	0.114633	1.5708	0	0	0.019552	-0.223948	0.657545	0.382198	1.16385	0	0
125.14	-2.50424	1.4582	0.994064	0.731059	-0.668249	1.02684	0.0115058	0.0552414	-0.226635	0	-0.278317	0	0	0.00596159	-0.169202	-0.261619	0.0159973	-0.361023	0	0	0.0316873	0.115895	-0.0427276	0.130064	-0.154434	0.20767	0.114353	1.5708	0	0	0.0199822	-0.224142	0.657545	0.381482	1.16399	0	0
125.15	-2.50499	1.45816	0.99465	0.731368	-0.668489	1.02682	0.0110873	0.0549451	-0.226337	0	-0.278329	0	0	0.00580219	-0.16887	-0.261522	0.0162121	-0.360627	0	0	0.0317336	0.115569	-0.0426753	0.129959	-0.154525	0.207351	0.113782	1.5708	0	0	0.0203309	-0.224343	0.6574	0.380796	1.16407	0	0
125.16	-2.50649	1.45785	0.995864	0.731652	-0.668713	1.02677	0.0111717	0.0547106	-0.226491	0	-0.278528	0	0	0.00587947	-0.168645	-0.262183	0.0163228	-0.360055	0	0	0.0320651	0.115322	-0.0424604	0.129795	-0.154611	0.206476	0.113099	1.5708	0	0	0.0205223	-0.224389	0.656565	0.38018	1.16407	0	0
125.17	-2.51011	1.45722	0.999053	0.73193	-0.668928	1.0267	0.0119145	0.0543695	-0.226853	0	-0.278843	0	0	0.00622298	-0.168351	-0.263065	0.0161633	-0.359757	0	0	0.0328403	0.115246	-0.0420697	0.129523	-0.154894	0.204681	0.112676	1.5708	0	0	0.0208557	-0.224229	0.656494	0.379112	1.16394	0	0
125.18	-2.51159	1.45692	1.00027	0.732244	-0.669165	1.02666	0.0119587	0.0540072	-0.226527	0	-0.278966	0	0	0.00611366	-0.168079	-0.26369	0.0160668	-0.359518	0	0	0.0331685	0.115248	-0.0418082	0.129289	-0.155246	0.202602	0.112346	1.5708	0	0	0.0212908	-0.224004	0.656658	0.378004	1.16377	0	0
125.19	-2.51004	1.45699	0.998531	0.732571	-0.669413	1.02666	0.0113585	0.0538507	-0.226607	0	-0.27899	0	0	0.00569437	-0.16801	-0.264337	0.0164823	-0.359146	0	0	0.0328203	0.115488	-0.0412377	0.129047	-0.155492	0.202171	0.111152	1.5708	0	0	0.022	-0.22358	0.656781	0.376882	1.16344	0	0
125.2	-2.50676	1.4573	0.994968	0.732881	-0.669651	1.02666	0.0104809	0.0537331	-0.227033	0	-0.278739	0	0	0.00511776	-0.168142	-0.265712	0.01743	-0.358558	0	0	0.0320303	0.115817	-0.0405358	0.129119	-0.155765	0.204183	0.109108	1.5708	0	0	0.0226755	-0.223155	0.65661	0.376089	1.16271	0	0
125.21	-2.50404	1.45761	0.992142	0.733199	-0.669893	1.02665	0.00957201	0.0535682	-0.227098	0	-0.278897	0	0	0.00473396	-0.168304	-0.267209	0.0186613	-0.358012	0	0	0.0312899	0.116068	-0.0399101	0.128963	-0.156067	0.206049	0.10735	1.5708	0	0	0.0232561	-0.22284	0.656498	0.375665	1.16227	0	0
125.22	-2.5015	1.45797	0.98939	0.733512	-0.670123	1.02665	0.0085917	0.0533316	-0.2269	0	-0.279172	0	0	0.004313	-0.168391	-0.268842	0.0199101	-0.357282	0	0	0.0304085	0.116319	-0.0392865	0.129001	-0.156418	0.20786	0.105854	1.5708	0	0	0.0238436	-0.22247	0.656411	0.375186	1.1617	0	0
125.23	-2.49908	1.45814	0.986648	0.733823	-0.670333	1.02664	0.00792813	0.0531652	-0.22697	0	-0.279357	0	0	0.00408596	-0.16858	-0.270987	0.0212172	-0.356075	0	0	0.0296062	0.116758	-0.0388213	0.12931	-0.156807	0.209876	0.104483	1.5708	0	0	0.0244366	-0.222004	0.656529	0.374549	1.16069	0	0
125.24	-2.49804	1.45806	0.985452	0.734149	-0.670566	1.02661	0.00763113	0.0530119	-0.227476	0	-0.278788	0	0	0.00412987	-0.168705	-0.272738	0.0223125	-0.354857	0	0	0.0292984	0.117186	-0.0387111	0.129509	-0.157187	0.211375	0.103467	1.5708	0	0	0.0248486	-0.221642	0.657362	0.37402	1.15916	0	0
125.25	-2.49781	1.45783	0.985258	0.734468	-0.670812	1.0266	0.00738346	0.0529543	-0.228056	0	-0.278405	0	0	0.00415019	-0.168672	-0.273269	0.0227037	-0.354446	0	0	0.0292995	0.117551	-0.0389049	0.12965	-0.1576	0.211884	0.102875	1.5708	0	0	0.025235	-0.221433	0.659027	0.373462	1.15776	0	0
125.26	-2.49866	1.45787	0.986292	0.734772	-0.671059	1.02663	0.00702088	0.0525689	-0.228571	0	-0.278468	0	0	0.00413324	-0.168462	-0.273858	0.0237216	-0.354207	0	0	0.0291578	0.117541	-0.0389568	0.12964	-0.158064	0.212024	0.102593	1.5708	0	0	0.0256696	-0.221336	0.660423	0.373145	1.15669	0	0
125.27	-2.49781	1.45713	0.985649	0.735075	-0.671273	1.02654	0.00730357	0.0528012	-0.229044	0	-0.278704	0	0	0.0040329	-0.168565	-0.272491	0.0220967	-0.354089	0	0	0.0297231	0.118331	-0.0388038	0.129061	-0.158479	0.211472	0.101677	1.5708	0	0	0.0257124	-0.221054	0.660739	0.373542	1.1554	0	0
125.28	-2.49841	1.4568	0.986335	0.735343	-0.671483	1.02651	0.00729064	0.0527132	-0.229562	0	-0.278829	0	0	0.00396566	-0.168465	-0.271933	0.0217259	-0.354196	0	0	0.0299471	0.118604	-0.0388492	0.128855	-0.158797	0.211015	0.101203	1.5708	0	0	0.0257018	-0.220932	0.660959	0.373883	1.15425	0	0
125.29	-2.49994	1.45646	0.98797	0.735627	-0.671692	1.02649	0.00737083	0.0525418	-0.229723	0	-0.278606	0	0	0.00398795	-0.168268	-0.271448	0.0213861	-0.35415	0	0	0.030206	0.118847	-0.0392032	0.129037	-0.159128	0.212	0.100572	1.5708	0	0	0.0256779	-0.220822	0.661737	0.374057	1.15312	0	0
125.3	-2.50206	1.45591	0.990336	0.735932	-0.671903	1.02644	0.0076704	0.052373	-0.229669	0	-0.278553	0	0	0.00436394	-0.168137	-0.270687	0.0212464	-0.353996	0	0	0.0306774	0.119299	-0.0397154	0.129039	-0.159412	0.212713	0.0997698	1.5708	0	0	0.0257523	-0.220641	0.663188	0.374081	1.15205	0	0
125.31	-2.5051	1.45524	0.993645	0.736227	-0.672125	1.02638	0.00825117	0.0521507	-0.229625	0	-0.278889	0	0	0.00501282	-0.16799	-0.269714	0.0212965	-0.353831	0	0	0.0313512	0.119764	-0.0402539	0.128933	-0.159697	0.213246	0.0990507	1.5708	0	0	0.0258865	-0.220535	0.665209	0.374092	1.15093	0	0
125.32	-2.50765	1.45489	0.996403	0.736507	-0.672338	1.02635	0.00854457	0.0517702	-0.229391	0	-0.279126	0	0	0.00543173	-0.167727	-0.269401	0.0215438	-0.353789	0	0	0.0316445	0.120003	-0.0405349	0.128773	-0.159986	0.213454	0.0985914	1.5708	0	0	0.026078	-0.22039	0.666304	0.374209	1.1505	0	0
125.33	-2.5102	1.45484	0.999052	0.736737	-0.672547	1.02637	0.00848271	0.0514157	-0.229652	0	-0.279287	0	0	0.00595279	-0.167513	-0.270499	0.0231751	-0.353548	0	0	0.0316379	0.119881	-0.040579	0.128665	-0.160169	0.213809	0.0982201	1.5708	0	0	0.0263748	-0.220365	0.667545	0.374351	1.14952	0	0
125.34	-2.51383	1.45413	1.00282	0.736971	-0.672753	1.0263	0.00920439	0.0513063	-0.230015	0	-0.279094	0	0	0.00678153	-0.167382	-0.270879	0.0234737	-0.353425	0	0	0.0324213	0.120063	-0.0408998	0.128536	-0.160394	0.214237	0.0978527	1.5708	0	0	0.0262838	-0.220419	0.668471	0.374926	1.14859	0	0
125.35	-2.51753	1.45283	1.00691	0.737252	-0.672944	1.02616	0.0104492	0.0514353	-0.229855	0	-0.278844	0	0	0.00798572	-0.167426	-0.270394	0.0226884	-0.353278	0	0	0.0338052	0.120702	-0.041849	0.128469	-0.160677	0.214511	0.0975338	1.5708	0	0	0.0259816	-0.220297	0.669105	0.375386	1.14757	0	0
125.36	-2.51946	1.45253	1.00899	0.737499	-0.673158	1.02616	0.0106464	0.0511791	-0.229565	0	-0.278777	0	0	0.008147	-0.167137	-0.269993	0.0225637	-0.353202	0	0	0.0339847	0.120959	-0.0424498	0.128437	-0.16085	0.214224	0.0973835	1.5708	0	0	0.0260173	-0.220072	0.669575	0.375297	1.14689	0	0
125.37	-2.51922	1.45293	1.00839	0.737682	-0.673423	1.02625	0.00999357	0.0508571	-0.229103	0	-0.278781	0	0	0.00680553	-0.166411	-0.267441	0.0211917	-0.3534	0	0	0.0333605	0.121079	-0.0424128	0.128314	-0.160963	0.213307	0.097254	1.5708	0	0	0.0261379	-0.21997	0.670331	0.375371	1.14644	0	0
125.38	-2.51699	1.45401	1.00575	0.737818	-0.673675	1.02642	0.00865179	0.05042	-0.229315	0	-0.278801	0	0	0.00407423	-0.165264	-0.262871	0.0182705	-0.354212	0	0	0.0317999	0.120951	-0.041961	0.128403	-0.161039	0.21183	0.0973465	1.5708	0	0	0.0265662	-0.220194	0.671398	0.376028	1.14621	0	0
125.39	-2.52547	1.45235	1.01494	0.738048	-0.673736	1.02627	0.0110571	0.0502957	-0.231173	0	-0.278423	0	0	0.00656885	-0.165127	-0.263926	0.0185885	-0.354769	0	0	0.0336605	0.121173	-0.0427765	0.128305	-0.161195	0.210066	0.0976708	1.5708	0	0	0.0267143	-0.220345	0.672767	0.37649	1.14574	0	0
125.4	-2.5355	1.45065	1.02496	0.738179	-0.673864	1.0261	0.0136943	0.0501014	-0.23333	0	-0.277918	0	0	0.00846523	-0.16461	-0.262684	0.0179165	-0.355005	0	0	0.035901	0.12118	-0.0431061	0.128112	-0.161296	0.210179	0.0976635	1.5708	0	0	0.0265405	-0.220505	0.673882	0.376692	1.14536	0	0
